<?xml version="1.0" encoding="UTF-8"?>
<svg id="Layer_1" data-name="Layer 1" xmlns="http://www.w3.org/2000/svg" version="1.1" viewBox="0 0 52 24">
  <defs>
    <style>
      .cls-1 {
        stroke-width: 0px;
      }

      .cls-1, .cls-2 {
        fill: #fff;
      }

      .cls-2 {
        font-family: MyriadPro-Regular, 'Myriad Pro';
        font-size: 28px;
      }
    </style>
  </defs>
  <path class="cls-1" d="M33.2,22v-11h-2v-6h5.2c0-.2-.1-.3-.2-.5s0-.3,0-.5c0-.8.3-1.5.9-2.1s1.3-.9,2.1-.9.7,0,1.1.2.6.3.9.6c.3-.3.6-.5.9-.6.3-.1.7-.2,1.1-.2.8,0,1.5.3,2.1.9s.9,1.3.9,2.1,0,.4,0,.5,0,.3-.2.5h5.2v6h-2v11h-16ZM43.2,3c-.3,0-.5,0-.7.3s-.3.4-.3.7,0,.5.3.7.4.3.7.3.5,0,.7-.3.3-.4.3-.7,0-.5-.3-.7-.4-.3-.7-.3ZM38.2,4c0,.3,0,.5.3.7s.4.3.7.3.5,0,.7-.3.3-.4.3-.7,0-.5-.3-.7-.4-.3-.7-.3-.5,0-.7.3-.3.4-.3.7ZM33.2,7v2h7v-2h-7ZM40.2,20v-9h-5v9h5ZM42.2,20h5v-9h-5v9ZM49.2,9v-2h-7v2h7Z"/>
  <text class="cls-2" transform="translate(19.8 21.1)"><tspan x="0" y="0">!</tspan></text>
  <path class="cls-1" d="M6.8,12.9H.8v-2h6v-6h2v6h6v2h-6v6h-2v-6Z"/>
</svg>