<?xml version="1.0" encoding="UTF-8"?>
<svg id="Layer_1" data-name="Layer 1" xmlns="http://www.w3.org/2000/svg" version="1.1" viewBox="0 0 47.9 24">
  <defs>
    <style>
      .cls-1 {
        fill: #000;
        stroke-width: 0px;
      }
    </style>
  </defs>
  <g>
    <path class="cls-1" d="M17.2,9.5c0,1.4-.3,2.6-1,3.8-.7,1.1-1.6,2.1-2.7,2.8h-7.5c-1.1-.7-2.1-1.6-2.7-2.8-.7-1.1-1-2.4-1-3.8,0-2.1.7-3.8,2.2-5.3s3.2-2.2,5.3-2.2,3.9.7,5.3,2.2,2.2,3.2,2.2,5.3ZM14.6,12c.4-.8.6-1.6.6-2.5,0-1.5-.5-2.8-1.6-3.9s-2.4-1.6-3.9-1.6-2.8.5-3.9,1.6-1.6,2.4-1.6,3.9.2,1.7.6,2.5c.4.8,1,1.4,1.7,2h6.3c.8-.5,1.3-1.2,1.7-2Z"/>
    <rect class="cls-1" x="5.7" y="17" width="8" height="2"/>
    <path class="cls-1" d="M7.7,20h4c0,.5-.2,1-.6,1.4s-.9.6-1.4.6-1-.2-1.4-.6-.6-.9-.6-1.4Z"/>
  </g>
  <path class="cls-1" d="M27.7,22v-11h-2v-6h5.2c0-.2-.1-.3-.2-.5s0-.3,0-.5c0-.8.3-1.5.9-2.1s1.3-.9,2.1-.9.7,0,1.1.2.6.3.9.6c.3-.3.6-.5.9-.6.3-.1.7-.2,1.1-.2.8,0,1.5.3,2.1.9s.9,1.3.9,2.1,0,.4,0,.5,0,.3-.2.5h5.2v6h-2v11h-16ZM37.7,3c-.3,0-.5,0-.7.3s-.3.4-.3.7,0,.5.3.7.4.3.7.3.5,0,.7-.3.3-.4.3-.7,0-.5-.3-.7-.4-.3-.7-.3ZM32.7,4c0,.3,0,.5.3.7s.4.3.7.3.5,0,.7-.3.3-.4.3-.7,0-.5-.3-.7-.4-.3-.7-.3-.5,0-.7.3-.3.4-.3.7ZM27.7,7v2h7v-2h-7ZM34.7,20v-9h-5v9h5ZM36.7,20h5v-9h-5v9ZM43.7,9v-2h-7v2h7Z"/>
  <text/>
</svg>