<?xml version="1.0" encoding="UTF-8"?>
<svg id="Layer_1" data-name="Layer 1" xmlns="http://www.w3.org/2000/svg" viewBox="0 0 29.91 20.18">
  <defs>
    <style>
      .cls-1 {
        fill: #fff;
        stroke-width: 0px;
      }

      .cls-2 {
        fill: none;
        stroke: #fff;
        stroke-miterlimit: 10;
        stroke-width: .75px;
      }
    </style>
  </defs>
  <g>
    <path class="cls-1" d="M29.65,3.93v14c0,.55-.2,1.02-.59,1.41s-.86.59-1.41.59h-14c-.55,0-1.02-.2-1.41-.59s-.59-.86-.59-1.41V3.93c0-.55.2-1.02.59-1.41s.86-.59,1.41-.59h14c.55,0,1.02.2,1.41.59s.59.86.59,1.41ZM27.65,17.93V3.93h-14v14h14Z"/>
    <polygon class="cls-1" points="22.9 10.93 26.65 15.93 14.65 15.93 17.65 11.93 19.9 14.93 22.9 10.93"/>
    <polygon class="cls-1" points="10.27 4.61 10.27 6.02 6.03 6.02 6.03 10.26 4.61 10.26 4.61 6.02 .38 6.02 .38 4.61 4.61 4.61 4.61 .38 6.03 .38 6.03 4.61 10.27 4.61"/>
  </g>
  <polygon class="cls-2" points="4.61 6.02 .38 6.02 .38 4.61 4.61 4.61 4.61 .38 6.03 .38 6.03 4.61 10.27 4.61 10.27 6.02 6.03 6.02 6.03 10.26 4.61 10.26 4.61 6.02"/>
</svg>