<?xml version="1.0" encoding="UTF-8"?>
<svg id="Layer_1" data-name="Layer 1" xmlns="http://www.w3.org/2000/svg" viewBox="0 0 231.57 203.13">
  <defs>
    <style>
      .cls-1 {
        fill: #fff;
        stroke-width: 0px;
      }
    </style>
  </defs>
  <path class="cls-1" d="M230.32,152.22c-.82-3.05-1.32-8.26-1.1-11.57.26-3.29.15-6.14-.14-6.31-.33-.19-.47-2.51-.35-5.18.35-7.34-7.95-41.51-11.48-47-.72-1.13-1.81-2.85-2.46-3.83-.62-1.02-1.74-2.7-2.46-3.83-.68-1.1-1.84-2.33-2.5-2.71s-2.65-3.5-4.4-6.93c-1.74-3.36-1.97-4.33-3.36-5.53-2.72-2.34-3.39-7.45-1.13-8.32.79-.31,1.42-3.24,3.72-6.55,6.53-9.17,6.51-17.87-.06-27.32-2.61-3.75-19.61-11.54-24.38-11.19-8.94.72-15.32,3.74-18.19,8.69-2.14,3.68-6.32,5.96-9.22,4.99-22.72-7.32-47.18-8.32-58.28-1.04-1.44.97-3.71.26-3.87.33-.73.4-3.5-3.46-3.7-5.49-1.02-11.14-12.73-16.29-27.03-11.84-14.04,4.38-24.53,18.96-18.41,25.68,4.38,4.78,3.46,15.29-1.9,21.97-14.58,18.22-21.67,32.15-22.37,43.89-.16,3.41-.88,8.45-1.54,11.19-.68,2.78-1.33,6.56-1.52,8.41-.68,6.11-1.09,7.19-7.72,20.24-6.75,13.25-7.44,15.86-5.59,21.03,1.73,4.89,3.25,15.28,2.6,17.63-.88,3.04,2.21,19.05,3.86,20.01.44.26.93.73,1.44,1.33.16.12.33.25.48.4.9.83,3.27,1.18,4.43,1.61,1.55.58,3.11,1.32,4.73,1.7,2.62.61,4.44-.36,6.35-1.72.24-.32.49-.64.75-.95.28-.33.66-.6,1.09-.83.06-.12.12-.25.18-.37.97-1.68,2.15-2.85,2.6-2.59.45.26,1.34-.32,1.97-1.32,1.06-1.74,1.11-1.54.23,2.54-.64,2.91,2.51.03,5.51-4.95,2.37-3.99,2.86-4.46,2.77-2.6-.19,2.51,3.04,6.14,3.39,3.83.11-.76-.1-1.53-.51-1.77-.41-.24-.08-1.47.8-2.71,1.05-1.52,1.82-1.9,2.39-1.18.5.56.4,1.49-.2,1.96-1.52,1.2-1.05,1.25,3.05.35,3.34-.74,3.5-.92,2.72-2.69s-.53-1.84,2.43-.78c4.3,1.51,5.25.91,3.65-2.31-.95-1.87-.95-2.73.03-2.99,2.66-.7,2.15-1.81-1.49-3.22-2.08-.77-3.83-1.84-3.84-2.39-.07-.54-.89-2.26-1.8-3.83-1.61-2.63-2.01-6.69-1.54-14.61.11-1.9-.15-3.64-.52-3.85-.91-.53-2.27,1.64-1.7,2.73.25.42.29,3.39.1,6.56-.37,6.89,1.17,15.06,2.84,15.04,1.34-.04,4.95,3.14,4.45,4-.74,1.27-7.74-4.21-8.52-6.75-.49-1.43-1.4-3.27-2.04-3.97-.62-.74-.8-1.94-.42-2.59.4-.7.36-1.48-.09-1.75-.45-.26-.54-.97-.21-1.54,1-1.72,1.35-17.04.49-20.77-.88-3.9-.48-5.15,1.25-4.14.62.36,1.33,2.36,1.51,4.43.18,2.07.54,4.19.8,4.78,1.1,2.28,1.61.55,1.26-4.08-.73-9.66-1.52-11.43-3.58-7.87-.74,1.27-1.64,1.78-2.42,1.33-1.89-1.1-2.29.53-1.17,5.06,1.2,4.85,2.02,13.41,1.38,14.52-.74,1.27-.93,13.18-.26,16.2l.62,2.82-1.73-1c-.95-.55-1.99-2.63-2.37-4.65-.37-2.02-.92-3.82-1.29-4.03-.33-.19-.43.35-.2,1.2.23.84.11,2.09-.25,2.7s-.24,2.32.31,3.73c.78,2.26.72,2.66-.76,2.73-1.17.03-1.66-.36-1.66-1.51.05-2.27-1.39-2.72-2.51-.8-.78,1.35-1.3,1.38-2.34.23-1.54-1.71-1.67-1.57-2.25,1.98-.51,3.15,3.13,5.42,4.19,2.65.48-1.31,1.08-1.29,3.41.28,3.61,2.42,2.8,3.81-1.97,3.4-4.15-.33-7.18-1.76-6.47-2.98.26-.45.06-1.06-.43-1.34-.49-.29-1.03.17-1.15,1.03-.18.88-1.1,2.09-2.12,2.71-1.46.9-1.67,1.55-.97,3.1.92,2.12-2.29,3.48-4.87,2.04-1.3-.7-1.36-2.59-.01-2.63.6.02,1.11-1.05,1.19-2.53.26-2.91-1.37-3.42-1.97-.59-.25,1-.74,1.65-1.15,1.41-.41-.24-1.74.25-2.94,1.08-2.07,1.48-6.39-2.17-5.33-4.57.17-.29,1.74-3.47,3.48-6.95,1.76-3.52,2.89-6.69,2.53-7.12-.34-.36-.38-1.15-.07-1.68.27-.56.1-2.35-.4-4.06-.52-1.67-.7-3.25-.39-3.51.27-.28-.3-3.18-1.26-6.47-2-6.9-1.78-7.65,2.27-8.19,3.37-.5,4.08-1.24,4.04-4.6-.02-1.87.22-2.28,1.21-2.09,1.46.24,2.97-1.89,1.85-2.53-.41-.24-1.21-.1-1.79.33-.58.43-.08-.43,1.07-1.84,2.46-3,7.3-6.7,8.2-6.18.19.11.49-.04.8-.35-.54-.99-.67-1.95-.52-2.83-.6.24-1.32.67-2.12,1.3-2.46,1.96-2.61,1.93-2.88-.25-.36-2.89-1.62-2.52-3.58,1.15-1.44,2.77-3.83,3.47-2.55.71.99-1.99,1.09-2.54,1.06-3.92-.1-1.92,2.2-3.42,3.28-2.14.95,1.21,1.45.73,3.98-4.2.91-1.77,2.53-3.51,3.51-3.87,1.68-.61,1.6-.77-.62-1.4-2.87-.84-1.99-5.2,1.88-9.51l1.84-2c.05-.07.1-.15.16-.22l-2.78.9c-1.52.54-3.21,1.26-3.68,1.69-2.26,1.91-1.22-2.07,2.12-8.12,2.46-4.43,3.59-7.32,3.33-8.68-.67-3.78,0-5.58,1.8-4.53.86.5,1.39,1.3,1.13,1.75-.26.45.02,1.1.64,1.46,1.32.76,8.89-2.72,9.98-4.6.38-.65,1.12-.99,1.66-.68.54.31.88.18.72-.29-.1-.49-1.65-.57-3.38-.15-1.77.4-2.94.32-2.63-.21.28-.49.06-2.37-.46-4.15-1.17-3.68.15-5,3.15-3.26,2.18,1.27,3.22-.05,2.15-2.85-.57-1.48-.3-1.76,2.21-2.11,1.98-.28,2.97-.95,3.17-2.15.23-1.34-.14-1.66-1.4-1.47-1.29.24-1.7-.39-1.82-2.75l-.18-3-2.01,1.19c-2.32,1.44-.53-1.17.32-2.7.53-.95.47-.32,1.55-1.9.47-.69.83-1.58,2.13-2.02,1.09-.35.56-1.96,1.53-2.87,1.72-1.63,15.64-8.13,17.91-9.11,4.39-1.88,8.93-2.86,10.38-3.93,1.96-1.38,10.07-2.24,11.89-1.19,1.4.81,14.41-3.91,17.99-6.1,1.02-.61,2.23-.9,2.72-.61.62.36.36.7-.75,1.1-.38.14-.88.59-1.45,1.23.49-.13.97-.19,1.46-.2,2.77-.57,5.64-.55,8.41,0,3.03-.85,6.3-1.01,8.5.15,1.59.87,5.62,1.78,8.95,2.13,3.31.28,6.96,1.09,8.08,1.73,1.15.67,4.97,1.41,7.45,1.59,4.82.23,9.47,1.32,15.39,6.11,1.83,1.5,7.34,4.54,11.34,8.69,7.87,8.15,7.95,7.66,13.47,13.18l4.02,8.27-2.51-1.46c-1.4-.81-2.34-1.85-2.08-2.3.26-.45-.51-1.39-1.75-2.11l-2.22-1.29.82,2.66c.47,1.47,1.6,3.12,2.55,3.67s2.11,2.92,2.56,5.26,1.42,4.87,2.11,5.65c.7.79,1.12,2.72.96,4.33-.3,2.61-.13,2.88,1.42,2.19,1.46-.63,1.86-.45,2.45,1.09.81,2.22-.05,4.07-1.73,3.75-.59-.12-1.13.33-1.08,1.01,0,.93.79,1.11,2.6.63,3.05-.8,3.93-2.04,2.24-3.02-.7-.41-.81-1.45-.29-2.35.66-1.15,1.48-1.33,2.8-.56,2.61,1.57,3.41,3.51,2.08,5.14-.69.8-.73,1.54-.04,1.78.65.21.94.65.71.96-1.31,1.59-1.29,2.7.08,2.89,3.31.55,6.84,8.23,4.72,10.28-.27.28-.02.7.63.91.69.24.65,1.53-.15,3.19-1.42,3.11-1.12,3.73,1.33,2.63,1.46-.63,1.75-.35,2.38,2.25l.71,3.04-2.8.84c-2.1.59-2.73,1.2-2.44,2.3.28,1.04.6,1.06,1.19.03.45-.78,1.34-1.08,2.04-.67.66.38.93,1.25.52,1.94-.38.65-.34,1.44.11,1.71.45.26,1.06.07,1.37-.46.33-.57.87.01,1.3,1.36.78,2.36.09,6.67-1.26,8.34-.69.8,2.08,6.29,3.68,7.33,1.99,1.32-.95,11.04-3.36,11.12-.55,0-.25-.8.6-1.79,1.67-1.93,1.36-6.7-.44-6.65-1.34.04-2.95,3.1-1.96,3.67.45.26.54.97.16,1.62-.36.61-.35,1.93.02,2.91.37.98.27,2.29-.24,2.98-1.63,2.34-1.91,3.48-.8,3.47.66,0,1.13-.44,1.12-.99,0-.49.8-1.56,1.87-2.36q1.83-1.45,1.38,1.79c-.28,1.81-.01,3.82.61,4.45,1.74,1.94,2.64,7.22,1.63,9.53-1.18,2.6-1.34,6.49-.31,7.09.41.24,0,1.7-1,3.25-1.43,2.28-2.07,2.63-3.47,1.81-1.44-.84-2.04-.47-3.59,2.02-1.01,1.65-2.77,3.92-3.9,5.01-1.45,1.46-1.65,1.99-.76,1.97.73-.02,1.29-.51,1.28-1.06.01-.59.41-.8.9-.51s.9-.03.88-.75c-.04-.79.22-.86.58-.15.78,1.49-1.07,4.68-3.08,5.21-1.23.32-1.47.73-1.14,1.96.33,1.23.61,1.23,1.23.16.45-.78,1.18-1.18,1.63-.91,1.03.6.72,1.13-1.42,2.45-1.13.71-1.53,1.41-1.19,2.05.29.55.23,1.5-.15,2.15-1.04,1.8-2.75-1.05-2.29-3.84.3-1.85-.12-2.64-1.66-3.21-2.76-.94-3.58-3.99-1.36-4.78,1.02-.34,1.42-.93,1.07-1.56-.27-.48-.96-.72-1.53-.4-1.98,1.04-3.28-.7-1.67-2.34,1.54-1.51,1.5-1.54-1.47-1.35-3.22.15-3.42-1.6-.24-2.43.84-.22,1.27-.58.9-.79s-.07-.64.68-.98c.91-.34,1.45-1.46,1.51-3.17.13-2.5-.03-2.42-2.91,1.32-3.25,4.18-5.28,4.65-3.3.76,1.38-2.75,1.5-3.07,3.04-7.53,1.23-3.55.65-4.92-1.38-3.31-.65.55-.96,1.85-.64,2.91.7,2.59-2.1,6.38-4.15,5.63-1.11-.37-1.3-1.46-.72-3.59,1.14-4.15-.59-6.19-1.93-2.27-.52,1.66-1.42,2.84-2.15,2.85-1.62.04-1.69-2.68-.1-4.76,1.9-2.51.14-3.37-1.92-.95-2.08,2.45-4.7,2.41-3.28-.04.52-.9.7-2.54.43-3.58-.3-1.1-.29-2.35-.03-2.8.28-.49.47-2.52.42-4.51-.1-3.72-1.76-2.66-1.88,1.26-.04,1.02-.45,2.86-.96,4.03-.45,1.16-.82,2.75-.78,3.54,0,.93-.51,1.07-1.66.4-.91-.53-1.45-1.39-1.14-1.92.31-.53.31-2.72.05-4.84-.3-2.14-.09-4.59.46-5.53.52-.9.55-2.47.12-3.54-.45-1.03-.57-2.52-.32-3.25,1.13-3.17,1.26-9.11.23-9.7-1.24-.72-2.28,4.31-1.97,9.47.07,1.4-.16,3.02-.51,3.64s-.3,2.23.13,3.57.22,3.41-.46,4.6c-.69,1.19-1.1,2.75-.93,3.4.19.71-.24,1.55-.97,1.95-2.07,1.1-3.22-1.65-2.93-7,.11-2.56-.11-5.04-.51-5.49-1.25-1.27-2.7,3.9-1.9,6.6.76,2.57.26,3.92-1.94,5.05-1.65.85-3.26-2.06-2.17-3.94.31-.53.39-2.29.14-3.85-.18-1.58-.17-3.6.14-4.51.31-.91.2-1.85-.23-2.16-1.28-.74-2.25.66-1.73,2.6.45,1.68-3.5,12.02-4.41,11.49-.95-.55-1.73-8.22-1.09-10.74.39-1.52.17-2.85-.46-3-1.98-.38-3.27,1.93-2.55,4.59.47,1.75.15,3.15-.99,4.46-1.9,2.23-2.42,2.09-2.72-.54-.44-4.08-2.66-4.33-4.12-.48-2.03,5.49-5.79.96-5.52-6.7.06-1.72-.3-2.14-1.66-1.89-2.49.41-2.56.81-1.2,5.86.7,2.49,1.01,4.9.7,5.44-.99,1.89,1.68,3.65,4.92,3.29,1.82-.2,3.77-.05,4.35.28.62.36,2.16.54,3.41.39,1.31-.17,2.94.06,3.68.49.72.36,3.14.95,5.31,1.28,7.42.97,33.79,15.17,33.89,18.23.04.79,1.32,2.19,2.88,3.09,2.31,1.34,2.65,1.97,1.91,3.35-.55.94-1.28,2.87-1.66,4.29l-.4,1.42c1.62,3.87,1.75,8.03,7.05,9.37,4.41,1.11,8.97.65,12.83-1.34.46-.81.93-1.65,1.42-2.52,11.11-19.63,12.59-22.66,12.74-25.96.1-2.07.26-6.24.4-9.33s-.41-8.11-1.23-11.16ZM26.96,80.55c-.52.9-1.44,1.35-2.06.99-1.52-.88-1.69-2.02-.37-3.06,1.66-1.34,3.5.23,2.43,2.07ZM40.6,61.3c-2.14.56-3.89,6.33-2.16,7.33,1.85,1.07,1.69,3.44-.28,5.03-1.23.98-1.45.69-1.91-2.2-.32-1.82-.96-3.56-1.45-3.85-.62-.36.54-3.02,3.36-7.89,2.39-4.03,4.6-7.17,5.01-6.93,1.03.6-1.21,8.16-2.57,8.51ZM69.93,19.64c-.25-.53-.71-.68-.96-.34-1.53,2.17-3.14,3.32-8.65,6.08-3.4,1.69-6.25,2.72-6.37,2.26-.12-.45-.49-.39-.8.14-.28.49-.92.73-1.37.46-.45-.26-.42-1.17.08-2.03.5-.86.57-2.02.13-2.6-.62-.74-.39-1.04.94-1.15,1.09-.08,1.39-.4.77-.76-1.07-.62.5-2.77,3.25-4.46.95-.6,1.64-1.51,1.5-2.03-.1-.49.63-.89,1.61-.87,1.15.01,1.95-.62,2.14-1.6.15-1.11.46-1.26.88-.47.36.7.9.63,1.35-.15.4-.7,1.02-1.1,1.35-.91.37.21,2.04.09,3.79-.27,4.22-.83,5.18-.39,5.32,2.59.14,2.7-4,7.85-4.96,6.09ZM196.36,38.45c-.62.02-.8.52-.39,1.25.48.88.01,1.21-1.67,1.17-1.66-.09-2.15-.37-1.79-.99.31-.53-.07-.92-.86-.88-1.24.05-2.86-.95-9.17-5.54-1.26-.95-2.59-1.89-2.94-2.14-.37-.21-.15-.69.42-1.01.73-.4.36-.61-1.26-.68-1.74-.03-2.53-.48-2.93-1.59-.42-1.17-.86-1.37-1.59-.76-.69.53-.79.31-.3-.61.41-.8.32-2.17-.23-3.03-1.22-2.07,2.54-4.76,5.47-3.93,1.28.36,1.89.06,1.87-.94-.04-1.17.09-1.1.68.45.87,2.2,4.71,3.93,5.23,2.37.21-.64.45-1.05.52-.9.1.11.97.89,2.03,1.72,4.04,3.27,7.76,7.4,6.99,7.77-.42.25.17,1.14,1.31,2.02,2.16,1.58,1.15,6.19-1.37,6.26ZM199.65,78.9c-.09.16-.42-1.17-.68-2.91-.53-3.64-.3-3.84,2.03-1.89,1.63,1.27,1.53,1.54-1.35,4.79Z"/>
  <path class="cls-1" d="M204.72,128.41c-1.48.84-2.57,8.9-1.34,9.61s3.6-5.84,2.99-8.38c-.34-1.51-.68-1.76-1.65-1.23Z"/>
  <path class="cls-1" d="M197.68,127.56c.3,1.38.04,5.44-.64,8.98-1.43,7.59-1.32,8.91.65,6.94.91-.9,1.11-1.92.52-2.6-.48-.6-.28-2.18.46-3.45s1.1-2.75.81-3.3.05-1.99.77-3.22,1.11-2.96.89-3.81c-1.1-4.08-4.38-3.64-3.46.46Z"/>
  <path class="cls-1" d="M191.35,127c-.03,3.1-.47,6.89-.93,8.43s-.69,3.1-.51,3.53c.47,1.09-.19,10.11-.81,11.17-.76,1.31-.2,10.22.62,10.04.39-.1.5-.86.27-1.7s-.02-2.25.48-3.11.98-3.31,1.11-5.42c.61-11.02,1.98-22.68,2.84-24.16.38-.65.24-1.94-.3-2.8-1.74-2.98-2.67-1.66-2.77,4.02Z"/>
  <path class="cls-1" d="M208.66,136.33c-.08,1.65-.52,3.74-.99,4.56-.93,1.6-1.28,7.9-.53,8.98.26.31-.26,1.87-1.11,3.34s-1.36,3.2-1.07,3.75c.88,1.61,3.84-4.44,3.15-6.38-.37-.98-.31-2.31.09-3.01,1.14-1.96,2-7.81,1.21-8.26-.37-.21.05-.85.95-1.36,1.17-.69,1.48-1.6,1.13-3.17-.93-4.37-2.61-3.48-2.82,1.54Z"/>
  <path class="cls-1" d="M213.41,137.55c-.26,1.21-.76,3.11-1.11,4.28s-.08,2.41.54,2.77c1.11.64,3.63-4.18,3.63-6.92.02-2.12-2.55-2.24-3.06-.13Z"/>
  <path class="cls-1" d="M185.63,119.59c-.93.28-1.29,6.3-.34,6.85.37.21.21,1.82-.43,3.58-.57,1.75-.8,3.37-.38,3.6s.22,1.33-.44,2.48-.87,3.21-.49,4.64.41,3.08.08,3.66c-.36.61-.51,2.11-.35,3.35.29,2.25.33,2.27,1.35.51.61-.96.87-2.17.58-2.62-.23-.46.1-2.73.74-4.98.67-2.29.75-4.71.19-5.36-.49-.67-.52-1.94.02-2.88s1.06-3.16,1.17-4.95c.04-1.78.6-3.59,1.16-4.08.58-.43.94-1.15.82-1.6-.26-.97-2.71-2.45-3.68-2.19Z"/>
  <path class="cls-1" d="M177.29,118.03c-.72.57-.82,2.26-.19,4.21.54,1.73.69,3.74.31,4.39s-.44,2.48-.2,4.04l.53,2.88,1.21-2.09c.71-1.12,1.41-4.05,1.57-6.41.19-2.41.56-4.76.82-5.21.78-1.35-2.7-2.93-4.07-1.81Z"/>
  <path class="cls-1" d="M169.9,114.84c-1.11.4-2.41.08-3.34-.79-.99-.95-2.9-1.35-5.33-1.07-2.1.2-4.61-.21-5.65-.98-2.16-1.58-4.39.84-2.73,2.9.52.63.71,1.62.41,2.15-.62,1.06.2,10.94,1.01,12.01.26.31.21,1.05-.09,1.59-1.17,2.11.22,7.12,1.42,5.14,1.26-2.17,1.94-9.04.91-9.64-.82-.48-.15-6.86.94-8.75,2.14-3.68,13.54,1.89,12.13,5.94-.36,1-.07,2.31.68,2.91,1.33,1.21,3.22-2.61,2.59-5.33-.13-.62.25-2.04.84-3.07,1.28-2.21-1.02-4.03-3.8-3.03Z"/>
  <path class="cls-1" d="M143.38,110.94c-2.71,1.16-3.6,1.08-5.26-.42-1.94-1.78-2.03-1.72-3.05,1.18-2.13,6.14,1.15,10.07,4.11,4.96,1.52-2.62,1.87-2.74,4.13-1.43,2.1,1.22,2.28,1.76,1.28,3.48-.74,1.27-.73,2.31.05,2.76,1.65.96,2.49-.69,3.14-6.27.63-5.54,0-6.18-4.41-4.25Z"/>
  <path class="cls-1" d="M200.57,149.35c-.77,8.25-.7,11.73.13,10.79,1.02-1.1,2.51-10.68,2.12-13.53-.3-2.52-1.95-.53-2.25,2.74Z"/>
  <path class="cls-1" d="M162.88,122.19c-1.77-1.03-3.2,2.19-1.6,3.72,1.77,1.79,2.68,1.45,2.79-1.01.02-1.08-.52-2.33-1.18-2.71Z"/>
  <path class="cls-1" d="M209.79,154.31c-.64,1.1-.86,2.24-.49,2.45.41.24.34,1.78-.18,3.45-.64,2.14-.56,2.68.3,1.76.68-.7,1.36-2.06,1.45-2.98.21-1.79.42-2.71,1.28-4.67.87-2.07-1.18-2.05-2.36,0Z"/>
  <path class="cls-1" d="M169.75,128.85c-.39.1-.56.88-.34,1.72s.06,2.17-.36,2.91-.42,2.43.01,3.78.53,2.88.25,3.37c-.31.53-.4,2.01-.19,3.28.32,2.21.41,2.15,1.44-.86.64-1.76.96-3.55.74-3.94-.19-.44-.14-1.66.06-2.76.26-1.11.19-3.28-.16-4.85-.38-1.53-1.01-2.72-1.44-2.64Z"/>
  <path class="cls-1" d="M196.04,148.04c-1.37,1.61-2.46,9.45-1.43,10.05,1.11.64,1.79-1.37,2.2-6.54.28-3.61.06-4.56-.77-3.51Z"/>
  <path class="cls-1" d="M126.93,108.56c-2.6,2.1-3.07,3.96-1.08,4.51,1.43.39,1.67.91.98,2.1-1.04,1.8-.56,4.38,1.01,5.29.66.38,1.69-.44,2.71-2.2,1.28-2.21,1.3-2.91.14-3.09-.84-.16-1.35-.89-1.15-1.81.22-.86.51-2.22.69-2.99.41-1.95-1.69-3.06-3.3-1.8Z"/>
  <path class="cls-1" d="M217,162.76c-.62,1.06-.72,2.48-.16,3.13.99,1.23,3.42-1.63,2.93-3.44-.5-1.71-1.65-1.61-2.77.31Z"/>
  <path class="cls-1" d="M161.34,128.84c-.46.22-.56,1.26-.2,2.24s.48,3.34.25,5.17c-.29,2.29.1,3.72,1.25,4.39,2.26,1.31,2.38.83.96-4.42-.68-2.53-.89-5.11-.51-5.76.76-1.31-.35-2.34-1.76-1.62Z"/>
  <path class="cls-1" d="M145.59,130.48c-.2,7.37-.03,8.4,1.55,8.33,1.28-.02,2.3-10.04,1.23-12.19-1.6-3.22-2.59-1.89-2.78,3.85Z"/>
  <path class="cls-1" d="M56.11,126.98c1.28.74,3.33,13.24,3.1,18.85-.13,2.88-.25,6.41-.3,7.92-.17,4.38,1.53,10.18,3.36,11.57,2.03,1.62,2.6-.41,1.64-5.39-.78-3.68-1.45-13.25-1.24-17.61.06-1.72-.67-6.24-1.74-10.09-1.47-5.44-1.52-7.06-.31-7.34,1.95-.51,5.13,12.32,4.67,18.89-.7,10.31-.59,11.46,1.52,15.97,2.79,5.82,4.86,4.24,3.52-2.66-1.79-9.35-2.02-11.23-1.78-14.48.17-1.81-.54-6.66-1.5-10.71-1.76-7.03-1.37-9.21,1.22-7.71,1.69.98,3.91,20.69,2.58,22.98-.21.37.05,1.62.65,2.67.57,1.1.82,2.39.56,2.84-.97,1.68,2.61,10.21,4.83,11.5,1.36.79,1.39-2.31.18-5.91-2.32-6.54-.45-8.24,2.16-2.02,1.92,4.56,3.36,5.5,4.04,2.62.26-1.21.23-2.49-.08-2.89-.3-.34-.25-1.18.11-1.8s-.15-3.15-1.14-5.63c-.96-2.52-1.52-4.98-1.21-5.51s.28-2.57-.11-4.55c-.35-1.95-.42-4.02-.14-4.51.31-.53-.49-3.89-1.73-7.45-2.28-6.41-2.19-9.41.24-8.01,1.24.72,1.64,2.21,3.52,12.43,1.15,6.46,1.63,15.7.84,17.05-.36.61-.35,1.27.02,1.49.33.19,1.21,2.18,1.91,4.39.7,2.21,1.74,4.02,2.34,4.03,1.62-.04,2.81-2.85,2.04-4.94-.43-1.07-.86-4.49-1.04-7.6-.11-3.13-1-8.72-1.93-12.43-.93-3.71-1.5-7.1-1.26-7.51s.06-.95-.4-1.21c-3.71-2.15-2.16-8.42,1.69-6.89,2.33.91,2.49,1.39,1.75,4.57-.48,2.07-.02,6.77,1.12,11.36,1.13,4.32,1.8,8.86,1.49,10.05-.95,4.48,1.08,12.38,3.59,13.83,2.84,1.65,4.14.16,3.04-3.43-.48-1.54-.27-2.67.59-3.1,1.06-.59,1.4-.23,1.46,1.66.05,1.34.92,2.88,1.94,3.48s1.69,1.36,1.45,1.77c-.21.37.16.97.86,1.37.86.5,1.73-.14,2.99-2.31,1.11-1.92,2.33-2.97,3.23-2.83.91.14,1.05.56.4,1.11-1.03.82,2.02,4.67,3.45,4.3.39-.1.26-.45-.32-.78-.54-.31-.57-.82-.02-1.1s.53-1.11,0-1.8c-.6-.68-.87-3.35-.61-5.88.26-2.53-.25-7.25-1.11-10.43-.81-3.15-1.63-7.72-1.74-10.09-.48-11.7-2.43-15.73-5.3-10.78-1.04,1.8-1.53,3.49-1.03,3.77,1.03.6.28,7.49-.96,8.58-.45.4-1.12-1.96-1.41-5.25-.42-4.12-1.29-6.6-2.77-7.95-2.59-2.37-2.61-2.99-.24-4.9,1.28-1.06,2.26-1.15,3.13-.27.9.91,2.17.82,4.06-.27,1.52-.81,3.41-1.14,4.18-.75.78.45,2.83.06,4.59-.89,5.45-2.85,7.1-1.13,6.48,6.66-.59,7.75-.69,8.13-2,6.49-.56-.65-.86-2.79-.68-4.71.21-2.83-.2-3.83-2.05-4.91-3.58-2.08-4.45-.78-3.51,5.02.51,2.92.59,5.81.24,6.42s-.24,2.98.26,5.24c.5,2.26.81,4.3.69,4.5s.32,3.63,1.04,7.6c.66,3.99,1.23,8.04,1.21,9.01,0,1.42.41,1.77,2.27,1.87,2.17.06,2.22.25.68,2.91-.9,1.55-2.18,2.72-2.9,2.64-.76-.11-.73.12.11.66.33.22.65.44.96.65-.32.11-.64.24-.93.4-.64-.1-1.32-.06-2.01.19-.59.22-1.16.47-1.72.72-.87-.65-1.54-.06-2.89-.38-2,.32-2.64-.27-2.96-.46-.37-.21-3.25.3-6.54,1.13-3.22.81-6.25,1.29-6.71,1.03-.41-.24-1.7,0-2.88.51-1.2.56-3.16.41-4.83-.4-2.4-1.17-2.96-1.06-4.05.82-.88,1.51-1.89,2.02-3.17,1.66-2.56-.72-3.78,1.69-2.05,4.01,1.42,1.92-.23.69-4.49-3.37-1.03-.98-1.69-.98-2.23-.04-.4.7-.21,1.41.47,1.47.8.14.75.71-.11,1.52-.7.74-1.51.99-1.72.59-.88-1.61-3.23-1.16-4.65.8-1.3,1.87-1.23,2.02.39,1.32,1.68-.72,1.74-.63.7,1.17-.64,1.1-1.19,1.77-1.3,1.49-.07-.26-1.01-.53-2.06-.54-1.06-.07-1.97-.49-1.97-.98-.06-.47-1.11-1.41-2.47-2.09-2.67-1.38-4.64-3.95-3.93-5.18.24-.41,1.36-.25,2.47.39,2.26,1.31,3-.23,2.13-4.34-.81-3.64-1.1-5.89-.89-6.25.76-1.31-.34-14.3-1.72-19.8-1.46-6.21-1.22-9.95.67-8.85Z"/>
  <path class="cls-1" d="M138.16,122.51c-1.73.04-2.56,4.31-1.25,6.43.68,1.1,1.29,3.37,1.39,5.01.12,4.17,1.07,2.15,1.68-3.56.3-2.61-.02-5.09-.68-5.48s-.96-1.1-.7-1.55c.28-.49.07-.89-.44-.86Z"/>
  <path class="cls-1" d="M129.55,122.55c-1.44-.84-2.09.37-1.33,2.4.31.89-.03,2.23-.75,3.01-.91.9-.97,1.57-.1,2.07.66.38,1.7,3.34,2.32,6.54,1.08,5.54,1.19,5.72,2.38,3.68.9-1.45.81-3.58-.18-6.72-.81-2.49-1.44-5.87-1.35-7.45.05-1.61-.41-3.19-.98-3.52Z"/>
  <path class="cls-1" d="M208.92,174.04c-1.44-.84-3.18,1.6-3.58,5.03-.24,1.83-.11,1.8,1.09-.08.71-1.23,1.86-2.64,2.55-3.17.83-.67.8-1.29-.06-1.79Z"/>
  <path class="cls-1" d="M146.5,142c-.97,1.68-.72,6.36.39,7.01.99.57,2.03-1.23,2.54-4.48.47-2.9-1.66-4.73-2.94-2.52Z"/>
  <path class="cls-1" d="M120.27,127.83c-1.41.82-1.5,7.05-.19,7.82.78.45,1.76,1.9,2.26,3.22.49,1.43.59.78.18-1.64-.38-2.19-.34-5.01.01-6.28.57-2.13-.76-4-2.26-3.12Z"/>
  <path class="cls-1" d="M90.5,115.21c-.59,1.02-.41,1.95.53,2.5,1.24.72,2.81,6.93,2.09,8.16-.19.33.4,3.29,2.43,12.13.25,1.18.38,3.72.3,5.64-.22,3.7,1.8,6.67,3.08,4.46.38-.65.37-2.63-.13-4.34-.45-1.68-.81-4.3-.79-5.76.05-1.5-.79-7.18-1.82-12.7-1.9-9.91-3.83-13.32-5.71-10.09Z"/>
  <path class="cls-1" d="M121.94,143.94c-1.23.71-1.38,1.44-.73,2.97,1.11,2.55,3.16.9,2.64-2.08-.27-1.63-.47-1.75-1.91-.89Z"/>
  <path class="cls-1" d="M103.43,133.91c-.3,1.19-.12,3.05.42,4.12.47,1.09.67,2.36.38,2.85-.52.9.63,4.41,1.68,5.07.31.23.82-.94,1.11-2.58s.23-3.15-.14-3.36c-.41-.24-.68-1.87-.59-3.62.18-3.83-2.13-5.82-2.86-2.48Z"/>
  <path class="cls-1" d="M129.87,152.09c-1.05,1.25-1.84,1.28-4.11-.03-4.45-2.58-5.75,2.13-1.9,6.88.95,1.21,1.35,1,2.17-.98,1.01-2.31,1.18-2.32,4.21-.24,1.95,1.29,4.12,2.01,5.53,1.84,1.29-.13,1.95-.51,1.45-.8-.47-.33-1.39-2.06-2.01-3.84-1.41-3.93-3.6-5.09-5.35-2.83Z"/>
  <path class="cls-1" d="M74.2,121.12c-2.52-1.63-2.84,1.2-.95,8.47,1.91,7.23,2.31,10.91,1.94,18.01-.06,1.33.37,2.68.99,3.03,1.48.86,1.66.36,1.39-3.35-.11-1.7-.32-5.43-.42-8.28s-.6-7.89-1.08-11.23c-.51-3.3-1.35-6.31-1.86-6.66Z"/>
  <path class="cls-1" d="M105.28,151.12c-2.18-1.27-2.21-1.22-1.5,1.16.61,2.27,2.19,2.58,3.32.72.19-.33-.63-1.19-1.83-1.88Z"/>
  <path class="cls-1" d="M49.85,128.38c-.43.74.2,6.4,1.2,10.65.49,2.09.8,5.17.74,6.88-.15,3.68.09,10.28.53,12.55.56,3.11,1.78,1.2,1.39-2.2-.21-1.92-.2-3.83.06-4.28.85-1.47.47-9.07-.62-12.6-.61-1.89-.95-3.67-.76-4,.17-.29,0-1.91-.32-3.63-.57-2.9-1.59-4.47-2.23-3.37Z"/>
  <path class="cls-1" d="M37.18,135.24c-.8.14-.21,5.78.65,6.28,1.32.76,1.56-.51.68-3.54-.48-1.54-1.03-2.78-1.33-2.74Z"/>
  <path class="cls-1" d="M34.04,137.14c-.68-.45-5.26,1-5.73,1.82-.36.61-1.03.82-1.52.54-.54-.31-1.17.31-1.42,1.31-.44,1.61-.82,1.6-2.74-.11s-2.3-1.72-2.54-.27c-.17,1.05-.44,1.33-.81.73-.65-1.25-5.61.47-6.76,2.36-.49.75-.34,1.72.28,2.08.66.38,1.34,2.15,1.58,3.92.34,2.93.48,3.07,1.36,1.55.59-.92.85-2.41.65-3.4-.26-1.08.19-.71,1.05.94,1.82,3.41,2.11,3.57,3.27,1.57.52-.9.58-1.85.13-2.11-1.85-1.07.24-1.94,2.75-1.14,2.55.82,2.88.63,4.64-2.78,2.28-4.31,3.59-4.86,5.09-2.13,1.53,2.86,2.05,2.34,1.45-1.46-.28-1.8-.61-3.31-.71-3.42Z"/>
  <path class="cls-1" d="M37.68,143.68c-.5.86-.46,6.29.08,7.64.13.35.15,1.35,0,2.19-.12.97.19.82.96-.43.66-1.04,1.15-3.6,1.08-5.66-.11-3.61-1.12-5.46-2.12-3.74Z"/>
  <path class="cls-1" d="M33.79,156.46c-.73.89-1.23,2.79-1.06,4.2.24,3.09.86,2.31,1.69-2.35.51-2.87.4-3.16-.64-1.84Z"/>
</svg>